<svg id="Layer_2" xmlns="http://www.w3.org/2000/svg" viewBox="0 0 725.39 436.34">
  <g id="Background_Complete">
    <g>
      <ellipse class="cls-8" fill="#ebebeb" cx="577.09" cy="59.21" rx="37.01" ry="31.41" transform="translate(494.87 633.48) rotate(-87.71)"/>
      <path class="cls-4" fill="#e0e0e0" d="M598.94,60.24c-.89,18.61-13.3,33.4-28.61,35.21,1.62.39,3.28.64,4.98.73,17.33.89,32.17-14.95,33.15-35.36.98-20.42-12.27-37.68-29.6-38.57-1.53-.08-3.05-.02-4.54.15,14.81,3.59,25.5,19.44,24.61,37.84Z"/>
    </g>
    <g>
      <path class="cls-8" fill="#ebebeb" d="M351.68,386.4c20.36-1.6,37,5.15,37.17,15.09s-16.2,19.29-36.56,20.9-37-5.15-37.17-15.09,16.2-19.29,36.56-20.9Z"/>
      <path class="cls-4" fill="#e0e0e0" d="M352.28,416.92c-18.56,1.46-34.02-4.02-36.74-12.53-.29.96-.44,1.93-.42,2.91.17,9.94,16.81,16.69,37.17,15.09s36.73-10.96,36.56-20.9c-.01-.88-.16-1.73-.43-2.56-2.67,8.79-17.79,16.54-36.14,17.99Z"/>
    </g>
    <g>
      <ellipse class="cls-8" fill="#ebebeb" cx="73.3" cy="345.67" rx="24.45" ry="28.8" transform="translate(-204.87 127.77) rotate(-39.95)"/>
      <path class="cls-4" fill="#e0e0e0" d="M60.33,356.7c9.4,11.04,24.08,14.25,34.37,8.08-.81,1.01-1.72,1.95-2.72,2.82-10.25,8.79-26.92,6.09-37.24-6.02-10.31-12.11-10.36-29.05-.11-37.84.91-.78,1.87-1.46,2.87-2.06-7.42,9.25-6.46,24.1,2.83,35.02Z"/>
    </g>
    <g>
      <ellipse class="cls-8" fill="#ebebeb" cx="43.62" cy="221.06" rx="18.78" ry="12.84" transform="translate(-178.06 261.43) rotate(-89.16)"/>
      <path class="cls-4" fill="#e0e0e0" d="M34.69,220.76c-.2,9.45,4.4,17.41,10.59,18.91-.67.14-1.36.2-2.05.18-7.09-.21-12.65-8.79-12.43-19.16.22-10.37,6.15-18.61,13.24-18.4.63.02,1.24.1,1.84.25-6.15,1.26-10.99,8.87-11.19,18.22Z"/>
    </g>
    <g>
      <path class="cls-8" fill="#ebebeb" d="M645.91,305.28c-5.38,10.15-2.74,22.05,5.88,26.59,8.63,4.54,19.98-.01,25.36-10.16,5.38-10.15,2.74-22.05-5.89-26.59-8.63-4.54-19.98.01-25.36,10.16Z"/>
      <path class="cls-4" fill="#e0e0e0" d="M672.39,319.26c4.9-9.25,3.14-19.96-3.74-25.21.89.27,1.77.63,2.62,1.08,8.63,4.54,11.26,16.44,5.89,26.59-5.38,10.15-16.73,14.69-25.36,10.16-.76-.4-1.48-.86-2.15-1.37,8.19,2.51,17.89-2.09,22.74-11.23Z"/>
    </g>
    <g>
      <ellipse class="cls-8" fill="#ebebeb" cx="172.12" cy="50.74" rx="28.8" ry="24.45" transform="translate(67.27 196.36) rotate(-70.67)"/>
      <path class="cls-4" fill="#e0e0e0" d="M154.2,44.29c-4.69,13.72.05,27.98,10.61,33.68-1.28-.18-2.56-.48-3.81-.9-12.79-4.33-18.99-20.04-13.84-35.09,5.14-15.05,19.68-23.75,32.47-19.42,1.13.38,2.21.86,3.24,1.41-11.74-1.65-24.02,6.75-28.66,20.32Z"/>
    </g>
    <path class="cls-4" fill="#e0e0e0" d="M505.81,49.42l4.2,2.5c.54.32.5,1.13-.08,1.42l-4.46,2.23c-.14.07-.26.18-.34.31l-2.61,4.25c-.34.55-1.14.53-1.42-.04l-2.13-4.4c-.07-.14-.17-.25-.3-.33l-4.2-2.5c-.54-.32-.5-1.13.08-1.42l4.46-2.23c.14-.07.26-.18.34-.31l2.61-4.25c.34-.55,1.14-.53,1.42.04l2.13,4.4c.07.14.17.25.3.33Z"/>
    <path class="cls-4" fill="#e0e0e0" d="M98.92,411.3l4.2,2.5c.55.32.5,1.13-.08,1.42l-4.46,2.23c-.14.07-.26.18-.34.31l-2.61,4.25c-.34.55-1.14.53-1.42-.04l-2.13-4.4c-.07-.14-.17-.25-.3-.33l-4.2-2.5c-.55-.32-.5-1.13.08-1.42l4.46-2.23c.14-.07.26-.18.34-.31l2.61-4.25c.34-.55,1.14-.53,1.42.04l2.13,4.4c.07.14.17.25.3.33Z"/>
    <path class="cls-4" fill="#e0e0e0" d="M470.06,408.34l4.2,2.5c.54.32.5,1.13-.08,1.42l-4.46,2.23c-.14.07-.26.18-.34.31l-2.61,4.25c-.34.55-1.14.53-1.42-.04l-2.13-4.4c-.07-.14-.17-.25-.3-.33l-4.2-2.5c-.54-.32-.5-1.13.08-1.42l4.46-2.23c.14-.07.26-.18.34-.31l2.61-4.25c.34-.55,1.14-.53,1.42.04l2.13,4.4c.07.14.17.25.3.33Z"/>
    <path class="cls-4" fill="#e0e0e0" d="M653.22,404.73l4.2,2.5c.54.32.5,1.13-.08,1.42l-4.46,2.23c-.14.07-.26.18-.34.31l-2.61,4.25c-.34.55-1.14.53-1.42-.04l-2.13-4.4c-.07-.14-.17-.25-.3-.33l-4.2-2.5c-.54-.32-.5-1.13.08-1.42l4.46-2.23c.14-.07.26-.18.34-.31l2.61-4.25c.34-.55,1.14-.53,1.42.04l2.13,4.4c.07.14.17.25.3.33Z"/>
    <path class="cls-4" fill="#e0e0e0" d="M204.51,97.87l4.2,2.5c.55.32.5,1.13-.08,1.42l-4.46,2.23c-.14.07-.26.18-.34.31l-2.61,4.25c-.34.55-1.14.53-1.42-.04l-2.13-4.4c-.07-.14-.17-.25-.3-.33l-4.2-2.5c-.54-.32-.5-1.13.08-1.42l4.46-2.23c.14-.07.26-.18.34-.31l2.61-4.25c.34-.55,1.14-.53,1.42.04l2.13,4.4c.07.14.17.25.3.33Z"/>
    <path class="cls-4" fill="#e0e0e0" d="M231.36,13.43l4.2,2.5c.54.32.5,1.13-.08,1.42l-4.46,2.23c-.14.07-.26.18-.34.31l-2.61,4.25c-.34.55-1.14.53-1.42-.04l-2.13-4.4c-.07-.14-.17-.25-.3-.33l-4.2-2.5c-.54-.32-.5-1.13.08-1.42l4.46-2.23c.14-.07.26-.18.34-.31l2.61-4.25c.34-.55,1.14-.53,1.42.04l2.13,4.4c.07.14.17.25.3.33Z"/>
    <path class="cls-4" fill="#e0e0e0" d="M95.18,50.22l2.13,1.27c.28.16.25.57-.04.72l-2.26,1.13c-.07.04-.13.09-.17.16l-1.32,2.16c-.17.28-.58.27-.72-.02l-1.08-2.23c-.03-.07-.09-.13-.15-.17l-2.13-1.27c-.28-.16-.25-.57.04-.72l2.26-1.13c.07-.04.13-.09.17-.16l1.32-2.16c.17-.28.58-.27.72.02l1.08,2.23c.03.07.09.13.15.17Z"/>
    <path class="cls-4" fill="#e0e0e0" d="M332.99,37.9l2.13,1.27c.28.16.25.57-.04.72l-2.26,1.13c-.07.04-.13.09-.17.16l-1.32,2.16c-.17.28-.58.27-.72-.02l-1.08-2.23c-.03-.07-.09-.13-.15-.17l-2.13-1.27c-.28-.16-.25-.57.04-.72l2.26-1.13c.07-.04.13-.09.17-.16l1.32-2.16c.17-.28.58-.27.72.02l1.08,2.23c.03.07.09.13.15.17Z"/>
    <path class="cls-4" fill="#e0e0e0" d="M530.81,23.84l2.13,1.27c.28.16.25.57-.04.72l-2.26,1.13c-.07.04-.13.09-.17.16l-1.32,2.16c-.17.28-.58.27-.72-.02l-1.08-2.23c-.03-.07-.09-.13-.15-.17l-2.13-1.27c-.28-.16-.25-.57.04-.72l2.26-1.13c.07-.04.13-.09.17-.16l1.32-2.16c.17-.28.58-.27.72.02l1.08,2.23c.03.07.09.13.15.17Z"/>
    <path class="cls-4" fill="#e0e0e0" d="M667.43,30.8l2.13,1.27c.28.16.25.57-.04.72l-2.26,1.13c-.07.04-.13.09-.17.16l-1.32,2.16c-.17.28-.58.27-.72-.02l-1.08-2.23c-.03-.07-.09-.13-.15-.17l-2.13-1.27c-.28-.16-.25-.57.04-.72l2.26-1.13c.07-.04.13-.09.17-.16l1.32-2.16c.17-.28.58-.27.72.02l1.08,2.23c.03.07.09.13.15.17Z"/>
    <path class="cls-4" fill="#e0e0e0" d="M423.23,429.73l2.5,1.46c.32.19.3.67-.04.84l-2.63,1.35c-.08.04-.15.11-.2.19l-1.52,2.53c-.2.33-.68.32-.84-.02l-1.29-2.6c-.04-.08-.1-.15-.18-.19l-2.5-1.46c-.32-.19-.3-.67.04-.84l2.63-1.35c.08-.04.15-.11.2-.19l1.52-2.53c.2-.33.68-.32.84.02l1.29,2.6c.04.08.1.15.18.19Z"/>
    <path class="cls-4" fill="#e0e0e0" d="M684.73,248.46l2.5,1.46c.32.19.3.67-.04.84l-2.63,1.35c-.08.04-.15.11-.2.19l-1.52,2.53c-.2.33-.68.32-.84-.02l-1.29-2.6c-.04-.08-.1-.15-.18-.19l-2.5-1.46c-.32-.19-.3-.67.04-.84l2.63-1.35c.08-.04.15-.11.2-.19l1.52-2.53c.2-.33.68-.32.84.02l1.29,2.6c.04.08.1.15.18.19Z"/>
    <path class="cls-4" fill="#e0e0e0" d="M39.35,270.71l2.01,1.2c.26.16.24.54-.04.68l-2.14,1.07c-.07.03-.12.09-.16.15l-1.25,2.04c-.16.26-.55.25-.68-.02l-1.02-2.11c-.03-.07-.08-.12-.15-.16l-2.01-1.2c-.26-.16-.24-.54.04-.68l2.14-1.07c.07-.03.12-.09.16-.15l1.25-2.04c.16-.26.55-.25.68.02l1.02,2.11c.03.07.08.12.15.16Z"/>
    <path class="cls-4" fill="#e0e0e0" d="M251.99,419.42l2.01,1.2c.26.16.24.54-.04.68l-2.14,1.07c-.07.03-.12.09-.16.15l-1.25,2.04c-.16.26-.55.25-.68-.02l-1.02-2.11c-.03-.07-.08-.12-.15-.16l-2.01-1.2c-.26-.16-.24-.54.04-.68l2.14-1.07c.07-.03.12-.09.16-.15l1.25-2.04c.16-.26.55-.25.68.02l1.02,2.11c.03.07.08.12.15.16Z"/>
    <path class="cls-4" fill="#e0e0e0" d="M635.38,370.5l2.01,1.2c.26.16.24.54-.04.68l-2.14,1.07c-.07.03-.12.09-.16.15l-1.25,2.04c-.16.26-.55.25-.68-.02l-1.02-2.11c-.03-.07-.08-.12-.15-.16l-2.01-1.2c-.26-.16-.24-.54.04-.68l2.14-1.07c.07-.03.12-.09.16-.15l1.25-2.04c.16-.26.55-.25.68.02l1.02,2.11c.03.07.08.12.15.16Z"/>
    <path class="cls-4" fill="#e0e0e0" d="M592.84,418l2.01,1.2c.26.16.24.54-.04.68l-2.14,1.07c-.07.03-.12.09-.16.15l-1.25,2.04c-.16.26-.55.25-.68-.02l-1.02-2.11c-.03-.07-.08-.12-.15-.16l-2.01-1.2c-.26-.16-.24-.54.04-.68l2.14-1.07c.07-.03.12-.09.16-.15l1.25-2.04c.16-.26.55-.25.68.02l1.02,2.11c.03.07.08.12.15.16Z"/>
    <path class="cls-4" fill="#e0e0e0" d="M635.85,112.06l2.18,1.3c.28.17.26.59-.04.74l-2.32,1.16c-.07.04-.13.09-.18.16l-1.35,2.21c-.18.29-.59.27-.74-.02l-1.11-2.28c-.03-.07-.09-.13-.16-.17l-2.18-1.3c-.28-.17-.26-.59.04-.74l2.32-1.16c.07-.04.13-.09.18-.16l1.35-2.21c.18-.29.59-.27.74.02l1.11,2.28c.03.07.09.13.16.17Z"/>
  </g>
  <g id="Stars">
    <g>
      <path class="cls-10" fill="#ff725e" d="M566.06,150.11l1.04.64c.13.08.13.28,0,.35l-1.07.51s-.06.04-.08.07l-.6,1.02c-.08.13-.27.12-.35-.02l-.55-1.09s-.04-.06-.08-.08l-1.04-.64c-.13-.08-.13-.28,0-.35l1.07-.51s.06-.04.08-.07l.6-1.02c.08-.13.27-.12.35.02l.55,1.09s.04.06.08.08Z"/>
      <path class="cls-10" fill="#ff725e" d="M566.88,301.27l1.04.64c.13.08.13.28,0,.35l-1.07.51s-.06.04-.08.07l-.6,1.02c-.08.13-.27.12-.35-.02l-.55-1.09s-.04-.06-.08-.08l-1.04-.64c-.13-.08-.13-.28,0-.35l1.07-.51s.06-.04.08-.07l.6-1.02c.08-.13.27-.12.35.02l.55,1.09s.04.06.08.08Z"/>
      <path class="cls-10" fill="#ff725e" d="M608.41,232l2.01,1.2c.26.16.24.54-.04.68l-2.14,1.07c-.07.03-.12.09-.16.15l-1.25,2.04c-.16.26-.55.25-.68-.02l-1.02-2.11c-.03-.07-.08-.12-.15-.16l-2.01-1.2c-.26-.16-.24-.54.04-.68l2.14-1.07c.07-.03.12-.09.16-.15l1.25-2.04c.16-.26.55-.25.68.02l1.02,2.11c.03.07.08.12.15.16Z"/>
      <path class="cls-10" fill="#ff725e" d="M554.9,161.42l2.02,1.25c.26.16.25.54-.01.67l-2.07.99c-.07.03-.12.08-.16.14l-1.17,1.98c-.15.26-.53.23-.67-.04l-1.07-2.12c-.03-.07-.09-.12-.15-.16l-2.02-1.25c-.26-.16-.25-.54.02-.67l2.07-.99c.06-.03.12-.08.16-.14l1.17-1.98c.15-.26.53-.23.67.04l1.07,2.12c.03.07.09.12.15.16Z"/>
      <path class="cls-10" fill="#ff725e" d="M79.82,220.24l1.53.97c.2.13.19.42-.02.51l-1.59.73s-.09.06-.12.11l-.91,1.5c-.12.19-.41.17-.51-.04l-.8-1.63c-.02-.05-.06-.09-.11-.12l-1.53-.97c-.2-.13-.19-.42.02-.51l1.59-.73s.09-.06.12-.11l.91-1.5c.12-.19.41-.17.51.04l.8,1.63c.02.05.06.09.11.12Z"/>
      <path class="cls-10" fill="#ff725e" d="M112.94,254.85l1.48.85c.19.11.19.38,0,.48l-1.46.76s-.08.06-.11.11l-.79,1.45c-.1.19-.38.18-.48-.01l-.82-1.49s-.06-.09-.11-.11l-1.48-.85c-.19-.11-.19-.38,0-.48l1.46-.76s.08-.06.11-.11l.79-1.45c.1-.19.38-.18.48.01l.82,1.49s.06.09.11.11Z"/>
      <path class="cls-10" fill="#ff725e" d="M157.24,140.21l1.48.85c.19.11.19.38,0,.48l-1.46.76s-.08.06-.11.11l-.79,1.45c-.1.19-.38.18-.48-.01l-.82-1.49s-.06-.09-.11-.11l-1.48-.85c-.19-.11-.19-.38,0-.48l1.46-.76s.08-.06.11-.11l.79-1.45c.1-.19.38-.18.48.01l.82,1.49s.06.09.11.11Z"/>
      <path class="cls-10" fill="#ff725e" d="M272.18,115.91l1.48.85c.19.11.19.38,0,.48l-1.46.76s-.08.06-.11.11l-.79,1.45c-.1.19-.38.18-.48-.01l-.82-1.49s-.06-.09-.11-.11l-1.48-.85c-.19-.11-.19-.38,0-.48l1.46-.76s.08-.06.11-.11l.79-1.45c.1-.19.38-.18.48.01l.82,1.49s.06.09.11.11Z"/>
      <path class="cls-10" fill="#ff725e" d="M102.14,260.42l2.93,1.68c.38.22.39.76.01.96l-2.9,1.51c-.09.05-.17.12-.21.21l-1.56,2.87c-.2.37-.75.36-.96-.03l-1.63-2.96c-.05-.09-.13-.17-.22-.22l-2.93-1.68c-.38-.22-.39-.76-.01-.96l2.9-1.51c.09-.05.16-.12.21-.21l1.56-2.87c.2-.37.75-.36.96.03l1.63,2.96c.05.09.13.17.22.22Z"/>
      <path class="cls-10" fill="#ff725e" d="M292.91,100.55l2.93,1.68c.38.22.39.76.01.96l-2.9,1.51c-.09.05-.17.12-.21.21l-1.56,2.87c-.2.37-.75.36-.96-.03l-1.63-2.96c-.05-.09-.13-.17-.22-.22l-2.93-1.68c-.38-.22-.39-.76-.01-.96l2.9-1.51c.09-.05.16-.12.21-.21l1.56-2.87c.2-.37.75-.36.96.03l1.63,2.96c.05.09.13.17.22.22Z"/>
      <path class="cls-10" fill="#ff725e" d="M250.98,385.89l2.93,1.68c.38.22.39.76.01.96l-2.9,1.51c-.09.05-.17.12-.21.21l-1.56,2.87c-.2.37-.75.36-.96-.03l-1.63-2.96c-.05-.09-.13-.17-.22-.22l-2.93-1.68c-.38-.22-.39-.76-.01-.96l2.9-1.51c.09-.05.16-.12.21-.21l1.56-2.87c.2-.37.75-.36.96.03l1.63,2.96c.05.09.13.17.22.22Z"/>
      <path class="cls-10" fill="#ff725e" d="M523.97,333.76l2.93,1.68c.38.22.39.76.01.96l-2.9,1.51c-.09.05-.17.12-.21.21l-1.56,2.87c-.2.37-.75.36-.96-.03l-1.63-2.96c-.05-.09-.13-.17-.22-.22l-2.93-1.68c-.38-.22-.39-.76-.01-.96l2.9-1.51c.09-.05.17-.12.21-.21l1.56-2.87c.2-.37.75-.36.96.03l1.63,2.96c.05.09.13.17.22.22Z"/>
      <path class="cls-10" fill="#ff725e" d="M483.62,116.59l1.91,1.09c.25.14.25.5,0,.62l-1.89.98c-.06.03-.11.08-.14.14l-1.02,1.87c-.13.24-.49.23-.62-.02l-1.06-1.93c-.03-.06-.08-.11-.14-.15l-1.91-1.09c-.25-.14-.25-.5,0-.62l1.89-.98c.06-.03.11-.08.14-.14l1.02-1.87c.13-.24.49-.23.62.02l1.06,1.93c.03.06.08.11.14.15Z"/>
    </g>
  </g>
  <g id="Portals">
    <g>
      <ellipse class="cls-1" fill="#263238" cx="268.64" cy="59.49" rx="22.72" ry="11.58" transform="translate(-5.57 82.19) rotate(-17.22)"/>
      <path class="cls-5" fill="#455a64" d="M265.83,51.92c10.88-3.52,21.35-2.39,24.78,2.4-.03-.62-.14-1.24-.36-1.83-2.19-6.02-13.64-7.76-25.58-3.89-11.93,3.87-19.83,11.88-17.64,17.89.19.53.46,1.03.8,1.5-.24-5.72,7.24-12.58,18-16.06Z"/>
    </g>
    <g>
      <ellipse class="cls-1" fill="#263238" cx="553.26" cy="377.85" rx="42.83" ry="27.51" transform="translate(-108.99 479.31) rotate(-43.04)"/>
      <path class="cls-5" fill="#455a64" d="M566.45,391.75c-15.74,14.73-35.77,19.46-47.07,11.8.72,1.29,1.58,2.48,2.61,3.57,10.4,11.08,32.83,6.95,50.1-9.21,17.27-16.16,22.83-38.25,12.43-49.32-.92-.98-1.94-1.84-3.04-2.58,6.58,11.79.53,31.17-15.04,45.75Z"/>
    </g>
    <g>
      <path class="cls-1" fill="#263238" d="M396.11,124.53c-31.3-5.33-54.12-19.24-50.98-31.06s31.07-17.07,62.37-11.74c31.3,5.33,54.12,19.24,50.98,31.06-3.14,11.82-31.07,17.07-62.37,11.74Z"/>
      <path class="cls-5" fill="#455a64" d="M405.64,88.21c28.53,4.86,50.01,16.84,51.21,27.87.77-1.03,1.32-2.13,1.63-3.29,3.14-11.82-19.68-25.72-50.98-31.06-31.3-5.33-59.22-.08-62.37,11.74-.28,1.05-.35,2.11-.23,3.18,7.04-9.46,32.51-13.26,60.74-8.45Z"/>
      <g>
        <path class="cls-5" fill="#455a64" d="M399.38,101.26c7.17,3.75,11.99,10.83,18.63,15.44,4.4,3.05,9.73,5.16,12.7,9.62-.29-2.61-2.08-4.78-3.86-6.7-5.02-5.42-10.66-10.27-16.77-14.43-3.14-2.14-6.62-4.15-10.41-4.13"/>
        <g class="cls-7">
          <path d="M399.38,101.26c7.17,3.75,11.99,10.83,18.63,15.44,4.4,3.05,9.73,5.16,12.7,9.62-.29-2.61-2.08-4.78-3.86-6.7-5.02-5.42-10.66-10.27-16.77-14.43-3.14-2.14-6.62-4.15-10.41-4.13"/>
        </g>
        <path class="cls-5" fill="#455a64" d="M433.5,4.48c-.13-1.16-.34-2.4-1.13-3.26-1.08-1.18-2.89-1.3-4.49-1.18-6.82.51-15.5,10.62-19.67,16.04l.7,30.09c18.68-9.79,26.19-27.24,24.59-41.69Z"/>
        <g class="cls-7">
          <path d="M433.5,4.48c-.13-1.16-.34-2.4-1.13-3.26-1.08-1.18-2.89-1.3-4.49-1.18-6.82.51-15.5,10.62-19.67,16.04l.7,30.09c18.68-9.79,26.19-27.24,24.59-41.69Z"/>
        </g>
        <path class="cls-5" fill="#455a64" d="M403.96,66.27c3.57-1.19,7.15-2.28,10.7-2.86,3.55-.58,7.13-2.07,10.63-2.89,4.54-1.07,8.79-3.12,13.15-4.79,4.36-1.67,9.01-2.99,13.65-2.48-3.43-1.73-7.33-2.36-11.17-2.35-3.84,0-7.65.61-11.44,1.21-5.26.84-10.62,1.71-15.39,4.09s-9.15,4.83-10.14,10.07"/>
        <g class="cls-7">
          <path d="M403.96,66.27c3.57-1.19,7.15-2.28,10.7-2.86,3.55-.58,7.13-2.07,10.63-2.89,4.54-1.07,8.79-3.12,13.15-4.79,4.36-1.67,9.01-2.99,13.65-2.48-3.43-1.73-7.33-2.36-11.17-2.35-3.84,0-7.65.61-11.44,1.21-5.26.84-10.62,1.71-15.39,4.09s-9.15,4.83-10.14,10.07"/>
        </g>
        <path class="cls-5" fill="#455a64" d="M379.73,67.3c-4.62-6.76-13.86-8.74-21.81-10.71,10.57,9.11,21.49,20.63,29.65,31.94,1.84-5.5-2.01-12.69-7.85-21.24Z"/>
        <g class="cls-7">
          <path d="M379.73,67.3c-4.62-6.76-13.86-8.74-21.81-10.71,10.57,9.11,21.49,20.63,29.65,31.94,1.84-5.5-2.01-12.69-7.85-21.24Z"/>
        </g>
        <path class="cls-5" fill="#455a64" d="M385.69,109.29c-9.51-2.75-17.35-13.61-26.72-16.68,10.82-.51,24.35,5.98,26.72,16.68"/>
        <g class="cls-7">
          <path d="M385.69,109.29c-9.51-2.75-17.35-13.61-26.72-16.68,10.82-.51,24.35,5.98,26.72,16.68"/>
        </g>
        <path class="cls-5" fill="#455a64" d="M395.16,87.34c5.32-.43,10.67.93,15.55,3.11,4.88,2.18,9.35,5.14,13.8,8.1.41-3.45-1.6-6.67-3.52-9.56-1.45-2.17-2.9-4.36-4.73-6.23-1.83-1.86-4.08-3.4-6.63-3.97-3.07-.7-6.39.09-9.01,1.84-2.62,1.76-4.31,3.78-5.47,6.71"/>
        <path class="cls-5" fill="#455a64" d="M386.41,122.38s4.72-32.25,9.95-50.03c5.23-17.78,10.3-38.01,10.3-38.01l2.06.56s-11.04,35.12-15.34,56.95c-4.3,21.81-2.87,31.61-2.87,31.61l-4.1-1.07"/>
        <path class="cls-5" fill="#455a64" d="M431.58,2.22s-.07.12-.22.33c-.18.24-.4.54-.68.9-.6.78-1.45,1.91-2.49,3.33-2.08,2.83-4.83,6.83-7.57,11.44-2.73,4.61-4.93,8.94-6.43,12.12-.75,1.59-1.34,2.88-1.73,3.78-.19.42-.35.76-.47,1.03-.11.23-.17.35-.19.35s.03-.13.12-.38c.11-.28.24-.63.41-1.06.36-.92.91-2.23,1.63-3.83,1.44-3.21,3.61-7.57,6.35-12.19,2.75-4.62,5.54-8.61,7.67-11.4,1.06-1.4,1.95-2.52,2.58-3.27.3-.35.54-.64.73-.86.17-.2.26-.29.27-.29Z"/>
        <path class="cls-5" fill="#455a64" d="M403.2,50.7c-6.15-6.81-7.91-16.24-5.35-25.04,1.79-6.16,5.69-11.46,9.76-16.42.35-.43.75-.89,1.3-.99.76-.14,1.45.45,1.96,1.03,4.44,5.04,5.72,12.18,5.4,18.88-.21,4.46-1.07,8.95-3.06,12.95-1.99,4-5.95,7.73-10.01,9.59"/>
        <path class="cls-1" fill="#263238" d="M403.2,50.7s.02-.13.1-.38c.09-.28.2-.63.34-1.05.31-.91.73-2.24,1.21-3.89.97-3.3,2.08-7.92,2.93-13.09.84-5.18,1.32-9.91,1.66-13.33.16-1.68.29-3.05.39-4.06.05-.45.09-.81.12-1.1.03-.25.05-.38.06-.38.01,0,.01.13,0,.39-.01.29-.03.66-.05,1.11-.05.96-.14,2.35-.28,4.07-.27,3.43-.72,8.17-1.56,13.36-.85,5.19-2,9.82-3.04,13.11-.52,1.64-.97,2.96-1.32,3.86-.16.42-.3.76-.4,1.03-.1.23-.15.36-.16.35Z"/>
        <g class="cls-7">
          <path d="M395.16,87.34c5.32-.43,10.67.93,15.55,3.11,4.88,2.18,9.35,5.14,13.8,8.1.41-3.45-1.6-6.67-3.52-9.56-1.45-2.17-2.9-4.36-4.73-6.23-1.83-1.86-4.08-3.4-6.63-3.97-3.07-.7-6.39.09-9.01,1.84-2.62,1.76-4.31,3.78-5.47,6.71"/>
        </g>
        <path class="cls-5" fill="#455a64" d="M418.48,113.6s-.1-.06-.27-.21c-.19-.18-.43-.4-.72-.66-.61-.58-1.49-1.43-2.62-2.43-.55-.51-1.17-1.06-1.84-1.64-.66-.59-1.39-1.19-2.17-1.81-1.56-1.23-3.31-2.55-5.32-3.65-2-1.11-4.1-1.8-6.08-1.82-.99-.03-1.93-.04-2.81.07-.87.1-1.67.29-2.39.51-1.43.44-2.51,1.02-3.22,1.46-.71.44-1.08.73-1.1.71,0,0,.08-.09.25-.23.17-.15.43-.35.78-.59.7-.48,1.77-1.11,3.22-1.58.72-.24,1.54-.44,2.43-.56.89-.13,1.85-.12,2.85-.1,2.03,0,4.22.71,6.24,1.83,2.04,1.11,3.8,2.45,5.36,3.7.78.63,1.5,1.24,2.16,1.84.67.59,1.28,1.15,1.82,1.67,1.1,1.03,1.96,1.91,2.54,2.52.27.28.49.51.67.71.15.16.23.25.22.26Z"/>
        <path class="cls-5" fill="#455a64" d="M379.85,102.62s.21.1.55.34c.34.23.82.61,1.37,1.1,1.11.98,2.51,2.52,3.68,4.47,1.17,1.96,1.87,3.91,2.21,5.36.17.72.28,1.31.32,1.73.05.41.06.64.04.64-.06,0-.2-.9-.6-2.31-.4-1.41-1.13-3.32-2.27-5.24-1.15-1.92-2.49-3.46-3.55-4.47-1.06-1.02-1.79-1.57-1.75-1.62Z"/>
        <path class="cls-5" fill="#455a64" d="M367.32,64.12s.14.07.37.23c.27.19.61.42,1.04.72.46.33,1,.71,1.63,1.16.63.45,1.29,1.05,2.05,1.66,3.01,2.49,6.88,6.36,10.28,11.3,1.66,2.49,3.11,4.95,4.25,7.28,1.13,2.33,2.04,4.49,2.7,6.33.67,1.84,1.15,3.35,1.47,4.4.15.49.28.89.38,1.2.08.28.12.42.11.43-.01,0-.07-.13-.18-.4-.11-.27-.26-.67-.44-1.18-.37-1.03-.88-2.53-1.58-4.35-.69-1.83-1.62-3.96-2.76-6.27-1.15-2.31-2.59-4.76-4.25-7.23-3.38-4.9-7.19-8.77-10.15-11.31-.75-.63-1.39-1.23-2.01-1.7-.61-.46-1.14-.86-1.59-1.2-.41-.32-.74-.57-.99-.77-.23-.18-.34-.28-.33-.29Z"/>
        <path class="cls-5" fill="#455a64" d="M410.94,85.87s-.27-.09-.73-.3c-.25-.12-.53-.25-.83-.4-.32-.16-.72-.27-1.14-.43-1.68-.59-4.22-1.13-6.91-.49-1.35.28-2.56.82-3.59,1.4-1.04.58-1.89,1.25-2.56,1.85-1.36,1.21-1.94,2.19-1.99,2.15-.02,0,.11-.26.4-.69.3-.41.75-1.01,1.43-1.64.66-.64,1.51-1.34,2.57-1.95,1.05-.62,2.29-1.18,3.67-1.47,2.78-.66,5.39-.06,7.08.6.42.18.82.31,1.14.49.3.17.57.32.81.46.44.26.68.41.67.43Z"/>
        <path class="cls-5" fill="#455a64" d="M429.94,54.53s-.14.05-.42.12c-.32.07-.72.17-1.22.29-1.06.25-2.59.62-4.47,1.14-1.87.53-4.1,1.2-6.51,2.1-2.41.9-5.03,2-7.58,3.5-1.26.76-2.46,1.59-3.41,2.58-.95,1.03-1.86,2.03-2.72,2.99-1.71,1.93-3.17,3.73-4.29,5.32-1.13,1.59-1.93,2.94-2.45,3.9-.52.96-.77,1.51-.8,1.49-.01,0,.04-.15.15-.41.11-.27.28-.66.52-1.14.48-.98,1.26-2.37,2.36-3.98,1.11-1.61,2.55-3.45,4.25-5.39.85-.97,1.76-1.98,2.71-3.01.99-1.04,2.21-1.88,3.49-2.65,2.58-1.52,5.22-2.61,7.65-3.5,2.43-.88,4.67-1.53,6.56-2.03,1.89-.48,3.44-.82,4.51-1.03.51-.09.92-.17,1.24-.22.28-.05.43-.07.44-.05Z"/>
        <path class="cls-5" fill="#455a64" d="M394.88,82.38s-.03-.31-.03-.86c0-.62.02-1.4.03-2.33.01-1.96-.03-4.68-.36-7.65-.33-2.97-.92-5.62-1.36-7.54-.21-.9-.39-1.66-.53-2.27-.12-.54-.18-.84-.15-.84s.12.28.29.81c.16.53.38,1.29.64,2.24.5,1.9,1.14,4.56,1.47,7.56.34,2.99.34,5.73.26,7.69-.04.98-.09,1.78-.14,2.33-.05.55-.09.85-.11.85Z"/>
        <path class="cls-5" fill="#455a64" d="M398.63,60.17c.5-3.71.02-7.52-1.04-11.11-2.91-9.85-10.42-18.24-19.9-22.2,5.05,12.24,10.11,24.47,15.16,36.71l1.64,6.34c2.54-2.75,3.65-6.02,4.14-9.73Z"/>
        <g class="cls-7">
          <path d="M398.63,60.17c.5-3.71.02-7.52-1.04-11.11-2.91-9.85-10.42-18.24-19.9-22.2,5.05,12.24,10.11,24.47,15.16,36.71l1.64,6.34c2.54-2.75,3.65-6.02,4.14-9.73Z"/>
        </g>
      </g>
    </g>
    <g>
      <g>
        <ellipse class="cls-1" fill="#263238" cx="178.05" cy="376.81" rx="29.02" ry="45.18" transform="translate(-214.1 235.73) rotate(-44.92)"/>
        <path class="cls-5" fill="#455a64" d="M163.85,391.2c-16.08-16.08-21.76-37.03-14.07-49.21-1.33.8-2.56,1.76-3.68,2.87-11.32,11.35-6.19,34.86,11.45,52.5,17.64,17.65,41.11,22.75,52.43,11.4,1-1.01,1.87-2.11,2.62-3.29-12.2,7.35-32.85,1.64-48.75-14.27Z"/>
      </g>
      <g>
        <path class="cls-5" fill="#455a64" d="M181.84,369.52l14.25-15.17,1.7,1.69s-12.05,14-12.25,17.34l-3.7-3.87Z"/>
        <polygon class="cls-10" fill="#ff725e" points="158.62 360.78 139.11 389.91 168.67 419.48 198.05 397.06 158.62 360.78"/>
        <path class="cls-10" fill="#ff725e" d="M168.86,419.31c-2.67,2.62-11.38-1.94-19.46-10.18-8.08-8.24-12.46-17.04-9.79-19.66,2.67-2.62,11.38,1.94,19.46,10.18,8.08,8.24,12.46,17.04,9.79,19.66Z"/>
        <g class="cls-2">
          <path d="M168.86,419.31c-2.67,2.62-11.38-1.94-19.46-10.18-8.08-8.24-12.46-17.04-9.79-19.66,2.67-2.62,11.38,1.94,19.46,10.18,8.08,8.24,12.46,17.04,9.79,19.66Z"/>
        </g>
        <path class="cls-10" fill="#ff725e" d="M198.93,399.29c-2.44,2.22-14.79.33-28.27-12.07-13.48-12.4-21.12-21.73-14.24-29,5.65-5.97,16.93-1.43,30.41,10.97,13.48,12.4,20.12,22.81,12.1,30.1Z"/>
        <path class="cls-1" fill="#263238" d="M168.67,419.48s.15-.15.47-.42c.35-.28.82-.66,1.42-1.15,1.28-1.02,3.1-2.47,5.4-4.3,4.69-3.69,11.32-8.9,19.2-15.09l-.03.03c.61-.68.61-1.76.42-2.74-.19-1-.57-1.99-1.02-2.95-.91-1.93-2.1-3.81-3.44-5.64-2.68-3.66-5.92-7.18-9.49-10.53-3.89-3.64-7.98-6.86-12.16-9.43-2.09-1.27-4.21-2.4-6.36-3.2-1.07-.39-2.16-.72-3.24-.85-1.06-.13-2.22-.06-2.9.63l.02-.03c-5.31,7.8-9.75,14.33-12.89,18.94-1.56,2.26-2.79,4.05-3.65,5.3-.41.59-.74,1.05-.98,1.39-.22.31-.35.47-.36.46s.09-.18.3-.5c.23-.35.53-.82.92-1.43.84-1.27,2.04-3.08,3.55-5.37,3.1-4.63,7.49-11.2,12.73-19.04h0s.01-.03.01-.03c.42-.45,1-.68,1.56-.78.57-.1,1.15-.09,1.72-.02,1.14.13,2.25.47,3.36.86,2.2.81,4.34,1.94,6.45,3.22,4.22,2.58,8.33,5.82,12.25,9.48,3.59,3.37,6.85,6.9,9.55,10.61,1.34,1.85,2.55,3.75,3.47,5.73.46.99.84,2.01,1.04,3.07.19,1.03.23,2.25-.55,3.14h-.01s-.02.03-.02.03c-7.92,6.13-14.59,11.29-19.31,14.94-2.33,1.79-4.19,3.2-5.48,4.19-.62.46-1.1.83-1.46,1.09-.33.24-.51.37-.52.36Z"/>
      </g>
    </g>
  </g>
  <g id="Texts">
    <g>
      <g>
        <path class="cls-10" fill="#ff725e" d="M258.24,289.59h-53.73v-26.32l51.18-124.48h30.71v124.48h13.31v26.32h-13.31v33.42h-28.15v-33.42ZM258.24,263.28v-71.85h-.51l-27.63,71.85h28.15Z"/>
        <g class="cls-2">
          <path d="M258.24,289.59h-53.73v-26.32l51.18-124.48h30.71v124.48h13.31v26.32h-13.31v33.42h-28.15v-33.42ZM258.24,263.28v-71.85h-.51l-27.63,71.85h28.15Z"/>
        </g>
        <path class="cls-10" fill="#ff725e" d="M245.43,289.59h-53.73v-26.32l51.18-124.48h30.71v124.48h13.31v26.32h-13.31v33.42h-28.15v-33.42ZM245.43,263.28v-71.85h-.51l-27.63,71.85h28.15Z"/>
      </g>
      <g>
        <path class="cls-10" fill="#ff725e" d="M322.19,313.54c-7.34-8.07-11-19.47-11-34.21v-96.85c0-14.74,3.67-26.14,11-34.21,7.33-8.07,17.91-12.11,31.73-12.11s24.39,4.04,31.73,12.11c7.33,8.07,11,19.47,11,34.21v96.85c0,14.74-3.67,26.14-11,34.21-7.34,8.07-17.91,12.11-31.73,12.11s-24.4-4.03-31.73-12.11ZM368.5,281.17v-100.53c0-12.11-4.86-18.16-14.58-18.16s-14.58,6.05-14.58,18.16v100.53c0,12.11,4.86,18.16,14.58,18.16s14.58-6.05,14.58-18.16Z"/>
        <g class="cls-2">
          <path d="M385.65,148.27c-7.34-8.07-17.91-12.11-31.73-12.11s-24.4,4.04-31.73,12.11c-7.34,8.07-11,19.47-11,34.21v96.85c0,14.74,3.67,26.14,11,34.21,7.33,8.07,17.91,12.11,31.73,12.11s24.39-4.03,31.73-12.11c7.33-8.07,11-19.47,11-34.21v-96.85c0-14.74-3.67-26.14-11-34.21ZM368.5,281.17c0,12.11-4.86,18.16-14.58,18.16s-14.58-7.6-14.58-18.16v-100.53c0-10.98,4.86-18.16,14.58-18.16s14.58,6.05,14.58,18.16v100.53Z"/>
        </g>
        <path class="cls-10" fill="#ff725e" d="M309.38,313.54c-7.34-8.07-11-19.47-11-34.21v-96.85c0-14.74,3.67-26.14,11-34.21,7.33-8.07,17.91-12.11,31.73-12.11s24.39,4.04,31.73,12.11c7.33,8.07,11,19.47,11,34.21v96.85c0,14.74-3.67,26.14-11,34.21-7.34,8.07-17.91,12.11-31.73,12.11s-24.4-4.03-31.73-12.11ZM355.69,281.17v-100.53c0-12.11-4.86-18.16-14.58-18.16s-14.58,6.05-14.58,18.16v100.53c0,12.11,4.86,18.16,14.58,18.16s14.58-6.05,14.58-18.16Z"/>
      </g>
      <g>
        <path class="cls-10" fill="#ff725e" d="M459.5,289.59h-53.74v-26.32l51.18-124.48h30.71v124.48h13.31v26.32h-13.31v33.42h-28.15v-33.42ZM459.5,263.28v-71.85h-.51l-27.64,71.85h28.15Z"/>
        <g class="cls-2">
          <path d="M459.5,289.59h-53.74v-26.32l51.18-124.48h30.71v124.48h13.31v26.32h-13.31v33.42h-28.15v-33.42ZM459.5,263.28v-71.85h-.51l-27.64,71.85h28.15Z"/>
        </g>
        <path class="cls-10" fill="#ff725e" d="M446.69,289.59h-53.74v-26.32l51.18-124.48h30.71v124.48h13.31v26.32h-13.31v33.42h-28.15v-33.42ZM446.69,263.28v-71.85h-.51l-27.64,71.85h28.15Z"/>
      </g>
    </g>
  </g>
  <g id="Character">
    <g>
      <g>
        <ellipse class="cls-1" fill="#263238" cx="533.89" cy="218.65" rx="24.39" ry="76.42" transform="translate(-32.7 109.9) rotate(-11.41)"/>
        <path class="cls-5" fill="#455a64" d="M550.58,215.47c-7.61-37.71-22.79-67.11-35.42-70,1.12-.88,2.32-1.46,3.62-1.72,13.2-2.66,30.67,28.71,39.02,70.09,8.35,41.37,4.41,77.07-8.79,79.73-1.17.24-2.37.2-3.6-.08,10.23-8.02,12.7-40.71,5.17-78.01Z"/>
      </g>
      <g>
        <g>
          <g>
            <path class="cls-1" fill="#263238" d="M682.53,144.16l14.15-20.65s25.74,7.44,28.72,3.88l-39.05-28.87-23.36,31.26,19.54,14.36Z"/>
            <path class="cls-4" fill="#e0e0e0" d="M683.35,116.28c-.6-.77-.5-2,.24-2.63.74-.63,2-.54,2.61.22.62.75.53,2.24-.27,2.79-.81.55-2.28.35-2.69-.53"/>
            <path class="cls-5" fill="#455a64" d="M686.35,98.53l-2.23,3.24,38.27,26.46s2.3.53,3.01-.84l-39.05-28.87Z"/>
            <path class="cls-3" fill="#fff" d="M697.16,124.18c.13-.2-.75-.99-1.24-2.29-.52-1.29-.39-2.48-.62-2.53-.2-.09-.76,1.26-.15,2.83.6,1.58,1.92,2.2,2.01,2Z"/>
            <path class="cls-3" fill="#fff" d="M702.51,125.52c.18-.15-.41-1.09-.46-2.37-.09-1.28.39-2.28.2-2.41-.16-.16-1.11.86-1.02,2.45.08,1.6,1.14,2.51,1.28,2.33Z"/>
            <path class="cls-3" fill="#fff" d="M708.46,122.33c-.14-.17-1.11.59-1.4,1.99-.29,1.4.3,2.48.5,2.38.22-.08.06-1.06.31-2.22.22-1.16.76-2,.59-2.16Z"/>
            <path class="cls-3" fill="#fff" d="M693.41,128.53c.05-.23-1.02-.62-2.04-1.49-1.04-.85-1.61-1.83-1.83-1.74-.21.06.08,1.37,1.3,2.38,1.21,1.02,2.55,1.07,2.57.85Z"/>
          </g>
          <path class="cls-1" fill="#263238" d="M668.96,228.08l14.27-20.56s25.69,7.6,28.7,4.05l-38.88-29.09-23.54,31.13,19.45,14.48Z"/>
          <path class="cls-4" fill="#e0e0e0" d="M669.95,200.2c-.6-.77-.49-2,.26-2.63.74-.63,2-.53,2.61.23.61.76.52,2.24-.29,2.79-.81.54-2.28.34-2.69-.54"/>
          <path class="cls-5" fill="#455a64" d="M673.05,182.47l-2.25,3.23,38.11,26.69s2.29.54,3.01-.82l-38.88-29.09Z"/>
          <path class="cls-3" fill="#fff" d="M683.71,208.19c.14-.19-.75-.99-1.23-2.3-.51-1.3-.38-2.48-.61-2.54-.2-.09-.77,1.25-.16,2.83.59,1.58,1.91,2.21,2,2.01Z"/>
          <path class="cls-3" fill="#fff" d="M689.05,209.55c.18-.15-.4-1.09-.44-2.38-.08-1.28.41-2.27.21-2.41-.16-.16-1.12.85-1.03,2.45.07,1.6,1.13,2.51,1.27,2.33Z"/>
          <path class="cls-3" fill="#fff" d="M695.02,206.4c-.14-.17-1.12.58-1.41,1.99-.3,1.4.29,2.48.49,2.38.22-.08.07-1.06.32-2.21.23-1.15.77-2,.6-2.16Z"/>
          <path class="cls-3" fill="#fff" d="M679.94,212.51c.05-.23-1.02-.62-2.04-1.5-1.04-.86-1.6-1.84-1.82-1.75-.21.06.08,1.37,1.29,2.38,1.21,1.02,2.55,1.09,2.57.87Z"/>
          <path class="cls-1" fill="#263238" d="M521.69,242.98c1.33,0,119.91-34.16,128.15-41.58,8.25-7.42,41.93-66.18,41.93-66.18l-23.92-19.51-41.58,54.18-73.02,6.59s-30.78-2.1-36.15,8.91l-.51,16.48,5.09,41.11Z"/>
          <path class="cls-1" fill="#263238" d="M521.69,242.98c1.75.05,54.72,58.99,71.32,62.34,16.59,3.35,24.94-8.09,30.61-14.95,7.22-8.74,56.38-71.47,56.38-71.47l-24.66-20.4-54.07,57.53-32.51-44.77-28.34-2.66-17.23,15.26-1.49,19.12Z"/>
          <path class="cls-5" fill="#455a64" d="M596.46,261.53s.06-.09.19-.24c.15-.18.35-.4.59-.68.55-.62,1.32-1.48,2.3-2.57,2.04-2.24,4.95-5.44,8.53-9.38,3.62-3.95,7.93-8.65,12.7-13.86,2.4-2.6,4.91-5.33,7.52-8.16,2.65-2.79,5.39-5.69,8.19-8.65,6.77-7.13,13.16-13.85,18.69-19.67l.16-.16.17.14c7.3,6.09,13.44,11.21,17.78,14.84,2.12,1.79,3.81,3.21,4.99,4.21.55.47.98.85,1.31,1.13.29.26.44.4.43.41,0,.01-.17-.11-.48-.35-.33-.26-.78-.62-1.35-1.07-1.2-.98-2.92-2.36-5.08-4.11-4.37-3.59-10.55-8.65-17.91-14.68l.33-.02c-5.51,5.83-11.88,12.56-18.64,19.71-2.81,2.96-5.55,5.85-8.2,8.64-2.62,2.82-5.14,5.54-7.55,8.14-4.81,5.18-9.14,9.85-12.78,13.78-3.63,3.89-6.58,7.04-8.65,9.26-1.01,1.06-1.8,1.9-2.37,2.5-.26.26-.46.47-.63.64-.14.14-.22.21-.23.21Z"/>
          <path class="cls-5" fill="#455a64" d="M595.78,221.06s-.54.23-1.54.55c-1.09.34-2.51.79-4.24,1.33-3.58,1.11-8.54,2.6-13.98,4.36-1.36.45-2.68.9-3.96,1.33-1.28.42-2.51.82-3.61,1.34-2.21,1.03-3.7,2.79-4.47,4.45-.78,1.67-1.06,3.18-1.27,4.2-.19,1.03-.28,1.6-.32,1.6-.02,0-.02-.15,0-.42.01-.28.05-.68.12-1.21.15-1.04.37-2.57,1.13-4.32.75-1.74,2.29-3.63,4.59-4.73,1.14-.56,2.38-.97,3.66-1.39,1.28-.43,2.6-.88,3.96-1.34,5.45-1.77,10.43-3.2,14.03-4.22,1.81-.51,3.27-.9,4.29-1.17,1.02-.26,1.58-.39,1.59-.35Z"/>
        </g>
        <path class="cls-5" fill="#455a64" d="M505.72,192.26s.07-.17.24-.47c.1-.17.21-.35.33-.56.16-.21.34-.45.53-.71.82-1.05,2.2-2.42,4.16-3.77,3.89-2.75,9.99-5.36,16.95-7.29,6.97-1.92,13.47-2.88,18.2-3.19,2.36-.16,4.28-.15,5.61-.07.66.04,1.17.09,1.52.14.35.05.53.08.52.1,0,.05-.73-.03-2.05-.03-1.32-.01-3.22.03-5.57.24-4.69.4-11.15,1.41-18.09,3.32-6.92,1.91-12.99,4.45-16.88,7.09-1.96,1.3-3.35,2.6-4.21,3.6-.2.24-.39.47-.56.67-.14.19-.26.37-.37.52-.2.28-.32.43-.33.42Z"/>
        <path class="cls-5" fill="#455a64" d="M554.81,275.85s-.15-.08-.41-.27c-.3-.23-.67-.52-1.12-.87-1.03-.81-2.41-1.9-4.09-3.22-3.45-2.72-8.36-6.28-13.81-10.19-5.46-3.92-10.17-7.78-13.42-10.74-1.62-1.48-2.92-2.7-3.79-3.57-.4-.4-.73-.73-1-1-.22-.23-.34-.36-.32-.38.01-.01.15.09.4.3.29.25.64.56,1.07.93.91.82,2.25,2,3.9,3.44,3.31,2.89,8.04,6.69,13.49,10.6,5.45,3.91,10.34,7.53,13.74,10.33,1.7,1.39,3.07,2.53,3.99,3.35.42.38.77.69,1.06.94.24.22.36.34.35.36Z"/>
      </g>
    </g>
    <g>
      <g>
        <ellipse class="cls-1" fill="#263238" cx="164.35" cy="225.39" rx="80.4" ry="25.66" transform="translate(-104.35 300.3) rotate(-69.48)"/>
        <path class="cls-5" fill="#455a64" d="M147.55,219.3c14.19-37.9,34.87-65.92,48.47-66.82-1.01-1.1-2.17-1.91-3.48-2.39-13.27-4.97-36.65,24.72-52.22,66.3-15.57,41.59-17.43,79.33-4.15,84.3,1.18.44,2.43.6,3.75.52-9.3-10.04-6.41-44.4,7.63-81.9Z"/>
        <g>
          <path class="cls-6" fill="#ffbf9d" d="M8.6,125.7s-3.54-9.03-5.07-12.3c-1.53-3.27-1.2-13.25-.18-15.06s.08-3.19.08-3.19c0,0-5.22-9.73-2.78-12.13l1.42-.16s5.23,10.44,5.4,10.65c.18.21,1.32.26,1.68-1.56.36-1.82-.52-7.22-.52-7.22,0,0-1.98-3.44-2.12-5.8-.05-.89.74-2.14,1.45-2.68l.71-.54s4.39,7.94,4.63,9.88c.24,1.94,1.05,6.15,1.05,6.15l.61-.49.05-9.74s-2.2-8.24-.53-10.04c1.67-1.8,1.83-.29,1.83-.29,0,0,3.13,8.41,3.37,10.55.1.87.19,9.23.19,9.23l1.35-.56.47-7.82s-1.58-7.76.79-8.55l1.9-.06s1.8,10.21,2,10.69-1.38,12.13-1.38,12.13l.48,1.1,1.37-1.86s.61-1.79,3.34-3.28c2.72-1.5,3.92-.41,3.92-.41l-3.42,6.08s-3.11,7.11-4.39,8.74-5.62,5.48-6.31,5.85c-.69.38.08,3.53.08,3.53l1.08,2.2-12.55,6.95Z"/>
          <path class="cls-9" fill="#ff9a6c" d="M22.29,101.9c0,.1-1.1.08-2.8.49-1.68.4-3.97,1.34-5.91,3.13-1.94,1.8-3.06,4-3.59,5.64-.54,1.66-.6,2.76-.71,2.75-.06,0-.15-1.12.31-2.87.44-1.73,1.55-4.07,3.59-5.96,2.81-2.24,5.1-3.1,6.22-3.1,1.77-.32,2.89-.14,2.88-.08Z"/>
          <path class="cls-9" fill="#ff9a6c" d="M22.76,90.74c0,.2-4.11-.47-8.94.8-4.85,1.21-8.13,3.77-8.23,3.6-.04-.05.71-.76,2.12-1.64,1.4-.88,3.5-1.89,5.96-2.53,2.47-.63,4.79-.75,6.44-.65,1.66.1,2.66.36,2.65.42Z"/>
          <path class="cls-6" fill="#ffbf9d" d="M8.6,125.7c.34.82,17.56,52.94,25,58.54,7.45,5.6,56.62,20.05,56.62,20.05l7.73-26.2-48.1-15.09-29.86-49.97-11.39,12.68Z"/>
        </g>
        <polygon class="cls-10" fill="#ff725e" points="101.13 170.89 63.99 164.55 56.05 196.85 99.02 206.68 101.13 170.89"/>
        <g>
          <g>
            <path class="cls-6" fill="#ffbf9d" d="M124.46,173.46l-2.18-56.98c-.08-14.19-8.41-25.97-22.59-25.5l-1.31.12c-13.16,1.21-23.2,12.32-23.05,25.54.14,12.3.45,25.89,1.13,32.43,1.41,13.54,15.17,14.41,15.17,14.41.03,0,4.21,16.86,4.21,16.86l4.8,1.59h0l23.81-8.48Z"/>
            <path class="cls-9" fill="#ff9a6c" d="M91.63,163.48s8.59-.28,17.17-6.84c0,0-2.5,10.91-16.14,10.94l-1.04-4.09Z"/>
            <path class="cls-1" fill="#263238" d="M82.17,127.68c.06,1.03.97,1.82,2.05,1.78,1.07-.04,1.89-.9,1.84-1.93-.06-1.03-.97-1.82-2.04-1.78-1.07.04-1.9.91-1.84,1.93Z"/>
            <path class="cls-1" fill="#263238" d="M78.76,122.37c.26.23,1.63-.99,3.71-1.18,2.08-.22,3.71.72,3.91.44.1-.12-.19-.56-.9-.98-.7-.42-1.86-.79-3.16-.66-1.3.13-2.35.7-2.93,1.25-.6.55-.77,1.03-.64,1.13Z"/>
            <path class="cls-1" fill="#263238" d="M98.64,127.31c.26.23,1.63-.99,3.72-1.18,2.08-.22,3.71.72,3.91.44.1-.12-.18-.56-.9-.98-.7-.42-1.86-.79-3.16-.66-1.3.13-2.35.71-2.93,1.25-.59.55-.77,1.03-.64,1.13Z"/>
            <path class="cls-1" fill="#263238" d="M93.23,137.67c0-.12-1.32-.22-3.44-.3-.54,0-1.05-.07-1.17-.42-.16-.37,0-.97.21-1.61.38-1.33.78-2.73,1.2-4.2,1.65-5.97,2.8-10.86,2.56-10.92-.24-.06-1.78,4.72-3.43,10.69-.4,1.47-.77,2.87-1.13,4.21-.15.62-.43,1.34-.08,2.11.18.38.6.64.95.7.35.07.65.05.92.04,2.12-.08,3.43-.19,3.43-.31Z"/>
            <path class="cls-1" fill="#263238" d="M96.9,121.82c.33.51,2.3-.24,4.76-.52,2.45-.33,4.54-.09,4.74-.66.08-.27-.37-.71-1.28-1.06-.9-.35-2.25-.57-3.72-.39-1.47.18-2.73.72-3.52,1.28-.79.56-1.13,1.1-.98,1.34Z"/>
            <path class="cls-1" fill="#263238" d="M78.27,117.08c.47.44,2.13-.18,4.17-.36,2.03-.24,3.8.03,4.16-.5.16-.25-.15-.71-.94-1.1-.78-.39-2.05-.66-3.45-.52-1.4.15-2.58.67-3.26,1.21-.68.54-.88,1.05-.67,1.27Z"/>
            <path class="cls-6" fill="#ffbf9d" d="M122.09,126.63c.22-.12,9.06-3.61,9.62,5.68.56,9.3-8.89,7.94-8.92,7.67-.03-.27-.69-13.36-.69-13.36Z"/>
            <path class="cls-9" fill="#ff9a6c" d="M125.42,136.29s.17.1.45.21c.27.11.74.16,1.21-.05.96-.42,1.69-2.03,1.64-3.71-.03-.85-.25-1.64-.59-2.29-.32-.66-.79-1.11-1.29-1.17-.5-.08-.83.23-.93.5-.11.27-.04.45-.09.47-.02.02-.21-.14-.16-.53.03-.19.12-.41.33-.6.21-.19.53-.31.88-.29.72,0,1.4.63,1.78,1.34.41.71.69,1.61.72,2.56.05,1.88-.8,3.69-2.12,4.16-.64.21-1.2.05-1.5-.16-.3-.21-.36-.42-.33-.44Z"/>
            <path class="cls-1" fill="#263238" d="M99.86,138.64c-.32,0-.23,2.13-1.99,3.73-1.76,1.61-4.04,1.47-4.05,1.77-.02.14.53.39,1.49.37.94-.01,2.31-.38,3.38-1.36,1.07-.98,1.5-2.24,1.53-3.12.04-.9-.22-1.42-.37-1.4Z"/>
          </g>
          <g>
            <path class="cls-1" fill="#263238" d="M55.94,105.36c.11-.56.48-1.03.95-1.35,1.03-.69,2.26-.69,3.44-.78,2.95-.23,5.83-1.17,8.37-2.66-.95-.41-1.84-.92-2.61-1.6-1.6-1.41-2.6-3.65-2.04-5.7.11-.38.3-.79.67-.93.59-.22,1.16.34,1.61.78,1.48,1.46,2.8,2.05,4.85,1.71,1.27-.21,2.5-.57,3.47-1.26.04-.04.07-.09.11-.14.45-.53.9-1.03,1.33-1.52,0,0,0,0,0,0h0c3.28-3.68,6.14-6.27,9.16-7.71,4.43-2.11,11.97-3.32,16.78-2.37,4.81.95,9.3,4.53,10.25,9.33,2.51-2.41,6.5-2.64,9.81-1.54l.08-.04c3.68,1.06,5.96,4.74,7.25,8.34.07.2.13.4.2.6,1.34,1.85,3.09,3.4,5.14,4.43.36.18.77.4.84.8.07.39-.25.74-.56,1-.82.67-1.8,1.14-2.84,1.39.38.85.82,1.68,1.35,2.46.45.66.98,1.46.67,2.2-.24.57-.93.84-1.55.79-.62-.05-1.18-.36-1.72-.65.46.94.92,1.87,1.38,2.81-1.29.31-2.64.29-3.93-.02-.55,3.48-.73,9.87-1.47,12.25-2.46.2-3.08-.04-4.3.45-1.58.63-.79,3.45-2.93,2.77-1.09-.35-2.98-4.29-3.4-5.35-2.81-7.06-4.08-14.74-3.69-22.33-1.59-1.5-3.47-2.68-5.5-3.48l.17.14c-3.88-1.08-8.26-2.12-11.76-.11-2.71,1.56-4.18,4.56-6.12,7.01-3.69,4.64-8.03,7.26-13.93,7.88-.28,4.14-.02,10.86.01,14.7l-3.74-7.46v.03c-.29-.43-.54-.87-.78-1.31l-.08-.13v-.02c-.38-.71-.74-1.42-1.21-2.11-.01.01-.02.02-.03.04-1.96,1.96-5.19-.65-3.69-2.98.3-.46.66-.88,1.08-1.23-.89.95-2.28,1.46-3.55,1.16-1.27-.31-2.31-1.5-2.28-2.81.02-.89.6-1.72,1.38-2.12-1.67.23-3.4-.03-4.92-.77-.99-.49-1.99-1.33-1.74-2.55Z"/>
            <path class="cls-5" fill="#455a64" d="M108.12,92.98s.59.32,1.44,1.16c.84.84,1.82,2.32,2.37,4.39.28,1.03.48,2.18.56,3.44.08,1.25.07,2.6.06,4.02,0,1.42-.01,2.92.17,4.47.09.77.24,1.56.45,2.33.22.76.47,1.59,1.1,2.22.5.51,1.29.71,1.96.53.67-.16,1.25-.56,1.67-1.08.81-1.08.95-2.38,1.1-3.54l-.28.05c.53,1,1.07,1.98,1.83,2.75.75.77,1.75,1.25,2.74,1.28.49.01.98-.1,1.39-.33.42-.24.71-.61.9-1,.18-.39.26-.82.21-1.22-.05-.4-.23-.78-.5-1.03l-.14.14c1.12,1.13,2.27,1.7,3.06,2.01.4.15.71.24.93.3.21.05.33.07.33.06,0,0-.11-.05-.31-.11-.21-.07-.52-.17-.9-.34-.77-.33-1.88-.93-2.96-2.05l-.14.14c.49.46.57,1.31.22,2.02-.18.35-.44.68-.81.88-.36.21-.81.3-1.26.29-.91-.03-1.84-.48-2.54-1.22-.72-.73-1.24-1.69-1.77-2.69l-.22-.42-.06.48c-.15,1.15-.3,2.41-1.04,3.38-.37.47-.9.83-1.49.97-.59.15-1.23,0-1.67-.45-.55-.54-.81-1.33-1.02-2.08-.21-.76-.35-1.53-.45-2.29-.19-1.52-.19-3.01-.19-4.43,0-1.42,0-2.77-.09-4.04-.09-1.27-.31-2.44-.61-3.48-.58-2.09-1.61-3.59-2.5-4.41-.89-.83-1.53-1.08-1.53-1.08Z"/>
            <path class="cls-5" fill="#455a64" d="M66.85,108.82s.04.03.11.09c.1.06.21.14.36.23.16.1.35.22.6.33.24.12.52.27.85.38,1.3.52,3.36.99,5.89.69,2.5-.3,5.46-1.37,8.02-3.54,2.6-2.12,4.8-5.15,6.55-8.57.89-1.71,1.59-3.45,2.38-5.06.79-1.62,1.67-3.12,2.78-4.33,1.1-1.22,2.4-2.15,3.77-2.62.68-.25,1.38-.34,2.05-.37.67,0,1.32.09,1.92.25,1.2.32,2.18.91,2.94,1.53.76.63,1.29,1.31,1.66,1.9.7,1.21.78,2.01.83,2,0,0,0-.05-.02-.14-.02-.11-.05-.25-.09-.41-.09-.36-.28-.88-.61-1.5-.36-.61-.88-1.32-1.65-1.97-.77-.65-1.77-1.27-3-1.61-.61-.17-1.28-.27-1.98-.27-.69.02-1.43.11-2.14.36-1.43.48-2.78,1.43-3.9,2.67-1.14,1.24-2.05,2.76-2.85,4.39-.8,1.63-1.51,3.36-2.39,5.05-1.73,3.39-3.91,6.38-6.45,8.49-2.52,2.15-5.4,3.22-7.86,3.54-2.48.33-4.52-.1-5.82-.58-1.31-.49-1.95-.96-1.97-.92Z"/>
            <path class="cls-5" fill="#455a64" d="M65.24,102.92s.17.13.51.31c.33.19.84.41,1.49.64.64.24,1.44.45,2.33.61.9.15,1.9.23,2.95.21,1.05-.04,2.04-.18,2.93-.38.88-.21,1.66-.47,2.29-.75.63-.27,1.13-.53,1.45-.73.33-.2.5-.32.49-.34-.03-.05-.76.38-2.02.86-.63.25-1.4.48-2.27.67-.87.18-1.85.31-2.88.35-1.03.02-2.01-.05-2.89-.18-.88-.14-1.67-.33-2.31-.53-1.29-.41-2.04-.79-2.07-.74Z"/>
          </g>
        </g>
        <g>
          <path class="cls-10" fill="#ff725e" d="M166.68,277.74l.94-4.5c-11.32-5.01-21.6-12.11-30.3-20.91l-50.05-50.64,1.3-14.53,24.64-23.07s11.75-7.79,26.98-1.76c17.3,6.86,24.62,16.57,44.82,40.11,8,9.33,3.51,1.54,11.33,6.59,0,0-4.91,26.67-14.19,43.2-6.8,12.1-15.47,25.51-15.47,25.51Z"/>
          <path class="cls-1" fill="#263238" d="M92.45,207.07c-.06.04-.79-.93-1.85-2.57-1.06-1.65-2.42-3.99-3.73-6.67-1.31-2.69-2.32-5.2-2.97-7.04-.65-1.85-.96-3.02-.9-3.04.08-.03.51,1.1,1.25,2.9.74,1.8,1.8,4.27,3.1,6.94,1.3,2.67,2.6,5.02,3.57,6.71.97,1.69,1.59,2.73,1.52,2.77Z"/>
        </g>
        <g>
          <g class="cls-2">
            <path d="M179.6,240.5s1.47-8.22-1.67-16.39c-3.14-8.17-11.25-19.67-11.25-19.67l-2.79,2.63,15.71,33.43Z"/>
          </g>
          <path class="cls-6" fill="#ffbf9d" d="M136.29,290.79l18.03-47.15-9.5-11.87-17.92-22.02s-12.79-6.64-18.92-16.44c-1.91-3.06-2.28-8.23-.28-12.01,5.6-10.59,17.19-14.78,28.74-11.62l10.16,6.66s33.53,52.55,32.99,62.68c-.38,7.15-28.66,55.57-28.66,55.57l-14.64-3.81Z"/>
          <path class="cls-6" fill="#ffbf9d" d="M137.56,288.78l-20.01,1.72c-2.11.18-4.01,1.34-5.14,3.12l-8.95,14.13s3.57,1.65,5.93-.99c2.43-2.72,6.18-8.19,6.18-8.19l-1.7,15.74s4.61.45,5.39-3.06c.89-4.03.96-9.31.96-9.31l4.5,14.96s4.89-1.61,3.32-7.27c-.99-3.57-2.06-7.25-2.06-7.25l5.49,9.74s3.99-.35,2.95-3.97c-.69-2.41-2.81-7.19-2.81-7.19,0,0,11.52.87,13.81.04,3.12-1.13,6.31-7.75,6.31-7.75l-14.18-4.49Z"/>
          <g>
            <path class="cls-10" fill="#ff725e" d="M119.82,166.94s-16.79,9.03-14.95,21.65c1.84,12.62,16.28,19.2,16.28,19.2l18.77,20.12,29.5-25.63-26.84-33.35"/>
            <path class="cls-1" fill="#263238" d="M142.57,168.93s.05.04.14.14c.1.12.23.26.38.45.35.42.84,1.01,1.47,1.77,1.29,1.58,3.16,3.86,5.52,6.75,4.74,5.85,11.47,14.16,19.51,24.09l.14.18-.17.15c-8.61,7.49-18.65,16.23-29.33,25.52l-.15.13-.2.17-.18-.19c-6.62-7.1-12.96-13.91-18.76-20.13l.08.06c-3.57-1.78-6.7-4.03-9.33-6.58-2.6-2.56-4.72-5.44-5.9-8.54-.25-.79-.57-1.54-.74-2.32-.15-.79-.36-1.55-.44-2.32-.18-1.55-.08-3.07.22-4.48.61-2.84,1.98-5.2,3.4-7.12,2.92-3.83,6.03-6.13,8.14-7.63,1.07-.74,1.93-1.26,2.51-1.6.28-.15.5-.28.67-.37.15-.08.23-.11.24-.11,0,0-.07.05-.22.15-.17.1-.38.24-.65.41-.57.36-1.41.9-2.46,1.66-2.07,1.53-5.14,3.86-7.99,7.68-1.39,1.91-2.71,4.24-3.29,7.01-.29,1.38-.37,2.86-.19,4.36.08.75.3,1.5.45,2.27.17.77.49,1.5.74,2.27,2.43,6.04,8.09,11.32,15.04,14.82l.05.03.03.03c5.8,6.22,12.16,13.02,18.78,20.11l-.37-.02.15-.13c10.69-9.27,20.75-18,29.37-25.47l-.03.33c-7.98-9.98-14.66-18.33-19.36-24.21-2.32-2.92-4.15-5.23-5.41-6.83-.61-.78-1.08-1.38-1.41-1.81-.15-.19-.26-.35-.36-.47-.08-.11-.12-.16-.11-.17Z"/>
          </g>
        </g>
        <path class="cls-9" fill="#ff9a6c" d="M121.92,292.65c0,.09-.66.07-1.64.35-.97.27-2.28.91-3.27,2.09-.98,1.18-1.38,2.59-1.46,3.59-.1,1.02.04,1.66-.05,1.67-.05.02-.32-.61-.32-1.69,0-1.07.36-2.61,1.43-3.91,1.08-1.29,2.53-1.92,3.58-2.11,1.07-.2,1.73-.05,1.72.01Z"/>
        <path class="cls-9" fill="#ff9a6c" d="M123.76,295c.03.07-.4.36-1.07.85-.33.25-.73.54-1.14.9-.39.37-.83.77-1.01,1.31-.38,1.14-.3,2.32-.24,3.13.08.82.21,1.32.14,1.35-.06.03-.32-.45-.5-1.29-.16-.83-.32-2.05.11-3.37.24-.69.77-1.14,1.19-1.5.45-.36.88-.63,1.24-.84.74-.42,1.24-.6,1.27-.54Z"/>
        <path class="cls-9" fill="#ff9a6c" d="M132.13,296.88c.02.07-.6.25-1.61.37-.97.14-2.46.22-3.37,1.38-.88,1.15-1.06,2.6-.87,3.53.19.95.51,1.51.43,1.55-.04.03-.48-.46-.79-1.47-.29-1.01-.19-2.61.82-3.93.51-.66,1.27-1.05,1.94-1.21.68-.17,1.3-.19,1.8-.21,1.01-.02,1.62-.07,1.64,0Z"/>
        <path class="cls-9" fill="#ff9a6c" d="M147.68,292.64c-.05.13-2.45-.67-5.37-1.79-1.46-.56-2.77-1.08-3.71-1.48-.94-.4-1.52-.67-1.5-.7.05-.21,2.48.58,5.4,1.69,2.92,1.11,5.24,2.14,5.18,2.28Z"/>
      </g>
      <g class="cls-2">
        <path d="M192.64,203.6s-3.59,31.41-10.63,44.21c-7.03,12.8-12.82,23.76-12.82,23.76l-.5,2.42s14.28-22.53,16.87-28.13c2.58-5.61,7.29-16.87,9.88-27.81,2.58-10.88,2.99-12.77,2.91-12.77,0,0-4.09-2.99-5.71-1.68Z"/>
      </g>
    </g>
  </g>
</svg>